<svg xmlns="http://www.w3.org/2000/svg" viewBox="0 0 1000 1000"><title>Artboard 4</title><g id="Layer_3" data-name="Layer 3"><path d="M846,415.19c-.08,22.43-9.41,50-19.5,76.4-22.12,58-44.41,101.15-74.51,144.22-31.1,44.52-77.13,68.4-134.07,95-61.55,28.74-120.45,32.56-177.55,33.07,23.16-20.65,34.16-37.47,39.4-48.85l.49-.93c.33-.62.65-1.25,1-1.88l.14-.29c.15-.3.31-.61.45-.92.29-.56.58-1.14.86-1.72a.36.36,0,0,0,0-.09l.55-1.16c.29-.6.58-1.2.84-1.8.13-.26.24-.52.35-.77l.23-.5c.21-.44.39-.89.59-1.32l.19-.44c.19-.44.39-.88.57-1.31.27-.63.54-1.26.8-1.89.16-.4.34-.8.47-1.13.28-.67.54-1.34.82-2.07l.42-1c.3-.75.58-1.52.86-2.28l.05-.12.3-.81c.77-2.09,1.5-4.22,2.2-6.37L492,686a2.83,2.83,0,0,0,.14-.41,1.87,1.87,0,0,0,.07-.22l.21-.64c.16-.53.34-1.07.5-1.62.08-.28.17-.55.25-.83l.31-1.05c.14-.46.28-.92.39-1.34.08-.25.15-.51.22-.77l.67-2.4,0-.17.4-1.53c.15-.56.29-1.11.45-1.74l.27-1.17c.18-.69.34-1.39.5-2.1l.35-1.54.36-1.67.15-.71.09-.44a1.06,1.06,0,0,0,0-.19c.13-.66.27-1.33.39-2l.25-1.27c.09-.5.18-1,.28-1.53l.1-.64c.09-.5.18-1,.26-1.48l.12-.77.18-1.08.17-1.11s0-.08,0-.12c.16-1.08.31-2.2.46-3.29,0-.25.07-.51.09-.76.11-.87.23-1.75.32-2.61.05-.44.1-.85.13-1.26l.09-.77c.05-.44.09-.89.13-1.35s.07-.73.1-1.09l0-.21c.07-.69.13-1.39.18-2.08,0-.33.05-.66.08-1l0-.39a.66.66,0,0,1,0-.14l0-.63c0-.46.07-.92.09-1.32s.06-.93.08-1.41c0-.66.07-1.33.1-2,0-.47,0-1,.05-1.46s.06-1.29.08-1.94v-.17l0-1.32c0-.68,0-1.35,0-2s0-1,0-1.4c0-.73,0-1.47,0-2.12,0-.47,0-1,0-1.36s0-1.06,0-1.59v-.71a1.09,1.09,0,0,0,0-.18v-.36c0-.24,0-.48,0-.73l-.05-1.11c0-.74-.06-1.5-.09-2.27a200.44,200.44,0,0,0-5.68-38.77,186.11,186.11,0,0,0-31-66c-3-4.09-6.18-8-8.6-11l-2.8-3.45c-1.82-2.22-3.61-4.41-5.36-6.59-7.76-9.72-13.63-18.12-17.07-27.44-2.89-7.86-4.07-16.47-3.62-26.33.65-14,4.45-28.7,8.47-44.3s8.17-31.66,9.35-48.31c.08-1.11.15-2.22.19-3.28,1.57-34.18-10.76-66.54-22.53-94.26,9.43-2.86,21.88-.23,30.49,6.51.21.15.42.32.62.49l.27.22c11.11,9.36,18.45,24.84,22.47,47.31.27,1.57.54,3.17.8,4.78.75,4.74,1.4,9.64,2,14.38l0,.3c0,.05,0,.1,0,.14.05.31.09.62.13.93l.06.48c.41,3.05.82,6.11,1.28,9.18l0,.17c.13.94.28,1.89.42,2.81,0,.31.1.64.15.95.07.51.15,1,.23,1.51l.15.85c0,.08,0,.14,0,.21.06.32.1.64.15,1a2.21,2.21,0,0,0,.05.25l.37,2.08c.09.54.18,1.07.29,1.62s.17.94.26,1.41l.13.59.15.82.19,1c.09.43.18.86.28,1.3l.11.5c.1.48.21.95.31,1.43a11.25,11.25,0,0,0,.26,1.15c1,4.57,2.17,8.73,3.47,12.71,0,0,0,.07,0,.11l.55,1.62c.24.71.5,1.42.76,2.14,11.3,30.44,37.66,52.66,70.53,59.45a101.43,101.43,0,0,0,20.78,2.12,98.86,98.86,0,0,0,70.56-29.12,250.93,250.93,0,0,0,33.24-41.54C704,327.65,719.05,291,731.6,243.21c.68-2.58,1.34-5.16,2-7.72l0-.18a67.14,67.14,0,0,0-5.51-47.91c-2.79-5.36-5.1-9.53-6.89-12.42,20.8,6.2,40.92,23.45,48.94,44,9.45,24.14,8.79,54.45-1.86,85.36-10.8,31.34-22.93,64.44-38.41,94.19a9.28,9.28,0,1,0,16.47,8.57c16-30.81,28.46-64.69,39.49-96.72a177.89,177.89,0,0,0,6.9-26.14c11.19,1.13,23.06,17.47,25.69,36.25,2.9,20.73-.61,46.77-9.9,73.32s-19.53,54.69-31.32,80a9.27,9.27,0,0,0,4.49,12.34,9.12,9.12,0,0,0,3.92.87,9.3,9.3,0,0,0,8.41-5.36c12.14-26,22.57-54.62,32-81.67,1.47-4.23,3-8.89,4.38-13.88a17.35,17.35,0,0,1,5.86,3.68C842.32,395.26,846,405,846,415.19Z" style="fill:#ff8295"/><path d="M711.67,196c-2.78-5.33-5.06-9.43-6.6-11.85C663.34,118.4,584.55,74.68,499.44,70c-59.29-3.23-120.11,15.91-166.85,52.53a251.43,251.43,0,0,0-85.72,127.56,74.33,74.33,0,0,1-30.61,41.36,580.41,580.41,0,0,0-50,36.81,4.83,4.83,0,0,0-.47.42,1.4,1.4,0,0,0,.16,2.09h0l25.91,20.78a22.87,22.87,0,0,1,7.31,25.48c-2.39,6.77-5.73,12-9.89,15.58-1.26,1.08-2.63,2.14-4.09,3.28-2.37,1.83-8.66,6.72-9,8.85a2.62,2.62,0,0,0,.32.9c1.22,2.32,4,4.21,7.2,6.41a9.28,9.28,0,0,1-.54,15.66c-4.67,2.75-4.72,3.62-4.87,6.48-.06,1.05,1.6,3.67,2.8,5.58a56.37,56.37,0,0,1,3.19,5.5,28.36,28.36,0,0,1,.28,24C180,480,171.67,496.09,163.29,506c-5.32,6.32-11.15,15.31-8.7,22.34,1.32,3.75,5.16,7.29,11.75,10.79C186.68,550,211.39,552,235.28,554q4.72.38,9.44.8c7.32.46,15.39.88,23.93,1.31,36,1.86,80.85,4.17,112.76,12a9.29,9.29,0,0,1-2.21,18.3,9.4,9.4,0,0,1-2.23-.28c-16.48-4.07-37-6.58-58-8.33,18.79,11.24,38.81,24.69,43,27.66,57.51,40.25,81,57.35,107.22,88.47.13-.33.27-.65.4-1l.07-.18c.15-.33.29-.67.43-1,.25-.61.46-1.16.68-1.7a1.59,1.59,0,0,0,.07-.2l.4-1c.23-.59.47-1.23.7-1.88l.06-.12.05-.15c.05-.14.11-.29.16-.44s0-.09.05-.13c.69-1.9,1.37-3.82,2-5.71l0-.09c.09-.25.16-.48.24-.73l.19-.58.45-1.43a.66.66,0,0,1,0-.15c0-.15.1-.3.14-.45l.35-1.19.33-1.13,1.2-4.42c.13-.47.25-1,.38-1.44l.26-1.15,0-.11c.14-.56.27-1.11.4-1.68l.34-1.5.33-1.52,0-.15.09-.44c.05-.23.09-.45.15-.68.11-.57.22-1.15.34-1.72,0,0,0-.12,0-.14l.21-1.14c.07-.36.15-.79.22-1.21l.13-.77c.09-.42.14-.78.2-1.14l.15-.92c.05-.24.08-.49.12-.74l.19-1.21q.23-1.5.42-3a.78.78,0,0,0,0-.16l0-.19,0-.22c.1-.8.2-1.6.29-2.4l0-.26c0-.24.06-.49.08-.74l.09-.93c0-.37.09-.75.12-1.13,0-.09,0-.19,0-.27s0-.38.05-.57l0-.39c.07-.69.11-1.28.17-1.88,0-.06,0-.12,0-.19,0-.23,0-.45.06-.69l.07-1.06c0-.38.05-.75.07-1.12s0-.88.07-1.29c0-.06,0-.12,0-.18.05-.56.07-1.12.1-1.67s0-.85,0-1.24v-.17c0-.57.05-1.16.07-1.75l0-1.26c0-.67,0-1.28,0-1.88s0-.86,0-1.26c0-.71,0-1.31,0-1.92s0-.85,0-1.23,0-1,0-1.41l0-.68c0-.22,0-.43,0-.63l-.05-1.53c0-.69-.05-1.38-.08-2.07a180.56,180.56,0,0,0-5.16-35.13,167.55,167.55,0,0,0-27.88-59.43c-2.82-3.78-5.8-7.49-8.08-10.3l-2.8-3.43q-2.76-3.39-5.47-6.75c-7.69-9.63-15.44-20.26-20-32.63-3.75-10.23-5.3-21.21-4.73-33.59.73-15.88,4.95-32.24,9-48.05,3.81-14.78,7.75-30,8.8-44.92.07-1,.13-1.91.17-2.86,1.41-30.57-10.27-60.81-21.3-86.77a18,18,0,0,1,11-24.15c15.28-5,34.69-1.29,48.29,9.34l.86.68.31.26.15.13C480.33,251.93,489.77,271,494.58,298c.3,1.71.6,3.42.87,5.13.78,5,1.45,10,2.09,14.82l0,.24c.07.39.12.78.17,1.17l.05.44c.4,3,.82,6,1.25,9l0,.17c.12.86.26,1.77.39,2.67a.59.59,0,0,1,0,.13c0,.19.06.38.1.58s0,.11,0,.18c.06.45.14.91.21,1.37l.14.81.21,1.34.34,1.94,0,.11c.08.43.15.86.24,1.3,0,.08,0,.16,0,.23.06.35.13.7.2,1.05l.12.59c.05.27.12.62.19,1l.14.77c.06.28.14.62.21.95l.14.64a.51.51,0,0,0,0,.13c.1.44.19.88.29,1.33,0,.12.05.25.09.38l.06.28c.92,4.07,1.92,7.76,3.06,11.23l.53,1.55c.2.62.4,1.17.59,1.7,9.05,24.38,30.32,42.23,56.88,47.7a83.56,83.56,0,0,0,16.91,1.75h.1A80.45,80.45,0,0,0,637.76,387a232.83,232.83,0,0,0,30.78-38.47c18.73-29.19,33.06-64.15,45.1-110,.67-2.54,1.32-5.08,2-7.61l0-.22A48.63,48.63,0,0,0,711.67,196ZM361.52,303.13c-2.43,1.68-4.47,3-6.46,4.22l-.95.51c-1.92,1.07-3.91,2.15-6,3.12l-1.92.83a51.9,51.9,0,0,1-5.4,2.15c-.79.28-1.66.57-2.52.86l-1,.35c-1.06.32-2,.55-3,.79l-.88.23a51.41,51.41,0,0,1-5.78,1.16l-1.87.3-.07,0h-.06c-.92.12-1.84.19-2.76.26l-1.09.08c-.24,0-.45,0-.65.06-.47,0-.93.07-1.4.08h-1.9a62.78,62.78,0,0,1-7.69-.47l-.14,0-3.63-.65a21.12,21.12,0,0,1-2.69-.65l-1-.27A48.82,48.82,0,0,1,289.33,310,47.32,47.32,0,0,1,279,300.76a51.09,51.09,0,0,1-7.15-11.46,47.46,47.46,0,0,1-2.36-6.36c-.31-1-.58-2.12-.84-3.33s-.43-2.24-.56-3.59c-.29-2.8,1.95-5.7,5-6.46a4.88,4.88,0,0,1,5.19,1.56l.21.29c.24.31.49.67.74,1s.57.83.87,1.22c.58.81,1.16,1.56,1.73,2.3,1.11,1.48,2.3,2.93,3.51,4.32A69.27,69.27,0,0,0,293,288a49.19,49.19,0,0,0,18.18,10l1.29.36a8,8,0,0,0,1.14.3l2.69.57c.86.1,1.72.24,2.58.37l1.41.18,2.9.23c.24,0,.48,0,.73,0h.6l2.83.07,2.94-.13.68,0a4.93,4.93,0,0,0,.67,0l4.59-.42.93-.14,2.18-.31,1.58-.19.84-.17.61-.11,3.22-.58c.67-.09,1.28-.24,1.92-.39.42-.09.84-.2,1.27-.28l1.13-.25c.7-.14,1.39-.3,2.11-.43,2.67-.67,4.74-1.14,6.73-1.54l.19,0a4.44,4.44,0,0,1,3.49.65,3.68,3.68,0,0,1,1.56,2.92A5.49,5.49,0,0,1,361.52,303.13Z" style="fill:#ff8295"/><path d="M154.89,907.43q-18.75,0-29.32-10.45T115,867v-49.2h20.51v48.7q0,12.45,5.16,18.06t14.35,5.6q9.3,0,14.47-5.6t5.16-18.06v-48.7h20V867q0,19.51-10.58,30T154.89,907.43Z" style="fill:#ff8295"/><path d="M207.24,930.33V838.22H226v13.84l-.38,20.13,1.26,20v38.13Zm39.89-23.41a28.71,28.71,0,0,1-14.85-3.77,25.12,25.12,0,0,1-10-11.52q-3.6-7.74-3.59-19.56t3.4-19.64A24,24,0,0,1,232,841a29.69,29.69,0,0,1,15.17-3.77,34.35,34.35,0,0,1,17.3,4.34,31.94,31.94,0,0,1,12.08,12.14A36.37,36.37,0,0,1,281,872.07q0,10.7-4.47,18.43a32.06,32.06,0,0,1-12.08,12.08A34.25,34.25,0,0,1,247.13,906.92Zm-3.27-16.1a16.87,16.87,0,0,0,8.74-2.27,16.69,16.69,0,0,0,6.17-6.48,22.77,22.77,0,0,0,0-20.07,16.36,16.36,0,0,0-6.17-6.36,17.32,17.32,0,0,0-8.74-2.2,17.69,17.69,0,0,0-8.81,2.2,16.23,16.23,0,0,0-6.23,6.36,22.77,22.77,0,0,0,0,20.07,16.55,16.55,0,0,0,6.23,6.48A17.23,17.23,0,0,0,243.86,890.82Z" style="fill:#ff8295"/><path d="M339,905.92H318.48V817.83H339Zm41.4-36.12h-43V852.56h43Zm-1.51-52h20.39v88.09H378.88Z" style="fill:#ff8295"/><path d="M446.08,906.92a43.2,43.2,0,0,1-20.26-4.53,33,33,0,0,1-18.25-30.32,35.29,35.29,0,0,1,4.59-18A32.31,32.31,0,0,1,425,841.68a38.28,38.28,0,0,1,18.56-4.47,37.4,37.4,0,0,1,17.93,4.28,32.09,32.09,0,0,1,12.65,12.08q4.65,7.8,4.66,18.75c0,.75-.05,1.61-.13,2.58s-.17,1.87-.25,2.7h-55V866.15H468.1l-7.68,3.4a17.82,17.82,0,0,0-2-9.19,15.69,15.69,0,0,0-5.91-6.1,17.17,17.17,0,0,0-8.81-2.2,17.45,17.45,0,0,0-8.87,2.2,15.31,15.31,0,0,0-6,6.17,19.38,19.38,0,0,0-2.14,9.37v3a18.56,18.56,0,0,0,2.52,9.82,16.53,16.53,0,0,0,6.92,6.35,23.37,23.37,0,0,0,10.57,2.2,25.07,25.07,0,0,0,9.37-1.63,23.08,23.08,0,0,0,7.49-4.91L474,896a30.44,30.44,0,0,1-11.71,8.12A43.26,43.26,0,0,1,446.08,906.92Z" style="fill:#ff8295"/><path d="M504.59,906.92a31,31,0,0,1-13.46-2.7,21.18,21.18,0,0,1-8.75-7.36,18.57,18.57,0,0,1-3.08-10.45,19,19,0,0,1,3-10.51q3-4.59,9.37-7.11t16.86-2.51h17.87V877.6H510.51q-6.93,0-9.51,2.27a7.25,7.25,0,0,0-2.57,5.66,7.06,7.06,0,0,0,2.95,6,13.08,13.08,0,0,0,8,2.2,17.8,17.8,0,0,0,9-2.26,12.41,12.41,0,0,0,5.6-6.93l3,9.19a17.76,17.76,0,0,1-7.8,9.75Q513.52,906.93,504.59,906.92Zm20.64-1V892.7L524,889.81V866.15q0-6.28-3.84-9.81t-11.76-3.53a34.27,34.27,0,0,0-10.64,1.7,29.84,29.84,0,0,0-9,4.59l-6.92-13.71a39.85,39.85,0,0,1,13.33-6.11A61.65,61.65,0,0,1,511,837.21q15.48,0,24,7.3t8.55,22.77v38.64Z" style="fill:#ff8295"/><path d="M555.05,905.92V812.54h19.63v93.38Z" style="fill:#ff8295"/><path d="M621.24,905.92V817.83h35.87q14.08,0,24.72,5.6A41,41,0,0,1,698.38,839a47.27,47.27,0,0,1,0,45.81,41.16,41.16,0,0,1-16.55,15.54q-10.64,5.59-24.72,5.6Zm9.31-8.06H656.6q11.7,0,20.33-4.59a33.51,33.51,0,0,0,13.4-12.71,39,39,0,0,0,0-37.44,33.61,33.61,0,0,0-13.4-12.64q-8.62-4.59-20.33-4.6H630.55Z" style="fill:#ff8295"/><path d="M703.54,905.92l40.27-88.09H753l40.27,88.09h-9.81l-37-82.68h3.78l-37,82.68Zm15.86-23.54,2.76-7.55h51.22l2.77,7.55Z" style="fill:#ff8295"/><path d="M838.82,906.67a50.07,50.07,0,0,1-18.44-3.33A43.4,43.4,0,0,1,796,879.68a47.54,47.54,0,0,1,0-35.61,43.54,43.54,0,0,1,24.35-23.66,52.55,52.55,0,0,1,36.87,0,44.14,44.14,0,0,1,14.66,9.37A43,43,0,0,1,881.54,844a47.88,47.88,0,0,1,0,35.74A42.87,42.87,0,0,1,871.85,894a44.16,44.16,0,0,1-14.66,9.38A49.59,49.59,0,0,1,838.82,906.67Zm0-8.3a38.86,38.86,0,0,0,14.66-2.71,34.59,34.59,0,0,0,11.7-7.68,35.84,35.84,0,0,0,7.74-11.57,39.52,39.52,0,0,0,0-29.07,35.88,35.88,0,0,0-7.74-11.58,34.71,34.71,0,0,0-11.7-7.67,38.86,38.86,0,0,0-14.66-2.71,39.33,39.33,0,0,0-14.73,2.71,35.07,35.07,0,0,0-19.63,19.25,39.34,39.34,0,0,0,0,29,35,35,0,0,0,19.63,19.32A39.33,39.33,0,0,0,838.82,898.37Z" style="fill:#ff8295"/></g></svg>