<svg xmlns="http://www.w3.org/2000/svg" viewBox="0 0 1000 1000"><title>Artboard 5</title><g id="Layer_3" data-name="Layer 3"><path d="M372.62,303.64a5.09,5.09,0,0,1-2.29,4.26c-2.27,1.58-4.18,2.83-6.05,4l-.88.49c-1.8,1-3.66,2-5.6,2.91-.65.27-1.23.53-1.8.79a49.79,49.79,0,0,1-5.06,2c-.74.27-1.55.54-2.36.81l-1,.32c-1,.3-1.91.53-2.79.75l-.82.21a47.55,47.55,0,0,1-5.41,1.09l-1.76.28-.06,0h-.06c-.86.11-1.72.17-2.58.24l-1,.08-.61.05c-.44,0-.88.07-1.31.08h-1.78a59,59,0,0,1-7.2-.43l-.14,0-3.39-.61a18.9,18.9,0,0,1-2.52-.61l-.93-.26a45.56,45.56,0,0,1-12.49-5.69,44.29,44.29,0,0,1-9.7-8.67,47.24,47.24,0,0,1-6.7-10.73,44.88,44.88,0,0,1-2.21-5.94c-.29-1-.54-2-.78-3.12a33.41,33.41,0,0,1-.53-3.36c-.27-2.63,1.82-5.34,4.65-6.06a4.57,4.57,0,0,1,4.86,1.47l.2.27c.23.29.46.63.69,1s.54.78.82,1.14c.54.76,1.08,1.46,1.61,2.16,1.05,1.38,2.16,2.74,3.3,4a64.72,64.72,0,0,0,7.2,7.17,46.13,46.13,0,0,0,17,9.34l1.21.34c.36.11.72.21,1.06.28l2.52.53c.82.09,1.62.22,2.42.34l1.32.17,2.72.22c.23,0,.45,0,.68,0h.56l2.66.06,2.75-.12.64,0a4.29,4.29,0,0,0,.62,0l4.3-.39.87-.13,2-.29,1.48-.18.79-.16.57-.1,3-.54a17.38,17.38,0,0,0,1.8-.37l1.18-.26,1.07-.23,2-.41c2.5-.63,4.44-1.07,6.3-1.44l.18,0a4.21,4.21,0,0,1,3.27.61A3.47,3.47,0,0,1,372.62,303.64Z" style="fill:#ff8295"/><path d="M826.68,376.21a33.3,33.3,0,0,0-13.24-7.62c2.82-14.61,4.16-30.86,1.92-46.88-3.66-26.12-20.53-46.55-39.13-48.75,1.17-18-1.18-35.12-7.09-50.2-11.91-30.43-45.25-54-76-54.49-19.83-24.89-45.6-46.28-75.55-62.59A278.29,278.29,0,0,0,500.41,72.3c-59.66-3.25-120.85,16-167.88,52.85a252.88,252.88,0,0,0-86.24,128.32,52.2,52.2,0,0,1-21.54,29,561.22,561.22,0,0,0-48.29,35.58,22.31,22.31,0,0,0-6.75,9.39c-4.16,11.21,3.71,17.53,6.68,19.91l24.27,19.44a4.06,4.06,0,0,1,1.33,4.5c-1.16,3.29-2.69,5.9-4.18,7.19-.87.74-2,1.61-3.18,2.54-6.49,5-15.37,11.94-15.14,22.36a19.47,19.47,0,0,0,2.29,8.57,24.65,24.65,0,0,0,3.75,5.3,22.57,22.57,0,0,0-4,12.45c-.34,6.49,2.77,11.43,5.28,15.4.79,1.27,1.54,2.45,2,3.5a9.41,9.41,0,0,1-.07,8c-4.15,9.68-11.11,22.73-17.3,30.07-14.3,16.95-14,29.92-11.27,37.82s9,14.3,19.25,19.74c22.2,11.81,47.16,13.87,71.28,15.87,3,.25,6,.49,9,.76,10.61.95,24.44,2.52,37.35,6.28,10.45,3,50,28.41,63.81,38.1,57.23,40.06,76.58,54.25,102,85.78-6,10.59-19.26,28.14-48.35,50.08a8.68,8.68,0,0,0,5.24,15.62c60,0,128.09,0,198-32.66,55.71-26,100.83-49.5,132.42-94.71,29.05-41.57,50.51-83.08,71.76-138.8,10-26.28,19.31-53.87,19.39-77.65C841.36,398.44,835.88,384.73,826.68,376.21ZM370.78,591c-4-2.78-22.7-15.37-40.29-25.89,19.65,1.63,38.87,4,54.31,7.79a8.23,8.23,0,0,0,2.08.26A8.69,8.69,0,0,0,389,556c-29.88-7.38-71.85-9.54-105.58-11.28-8-.4-15.55-.8-22.41-1.22-2.93-.26-5.88-.52-8.83-.76-22.37-1.84-45.51-3.75-64.55-13.88-6.17-3.29-9.76-6.6-11-10.11-2.29-6.58,3.17-15,8.15-20.91,7.84-9.29,15.67-24.35,20-34.41a26.54,26.54,0,0,0-.27-22.44,53.84,53.84,0,0,0-3-5.16c-1.12-1.79-2.68-4.24-2.62-5.22.14-2.68.18-3.49,4.56-6.07a8.69,8.69,0,0,0,.5-14.66c-3-2.06-5.6-3.83-6.74-6a2.59,2.59,0,0,1-.3-.84c.31-2,6.2-6.57,8.42-8.29,1.36-1.06,2.65-2.06,3.83-3.07,3.9-3.34,7-8.25,9.26-14.58a21.43,21.43,0,0,0-6.85-23.87L187.27,333.8c-.26-.2-.66-.53-1-.84a5.46,5.46,0,0,1,1.3-1.51A545,545,0,0,1,234.33,297,69.58,69.58,0,0,0,263,258.27a235.46,235.46,0,0,1,80.26-119.44C387,104.55,444,86.62,499.46,89.66,579.14,94,652.91,135,692,196.49c1.43,2.26,3.57,6.11,6.18,11.1a45.51,45.51,0,0,1,3.73,32.46l0,.21c-.6,2.37-1.21,4.75-1.84,7.12-11.27,42.94-24.69,75.68-42.23,103a218.23,218.23,0,0,1-28.82,36,75.27,75.27,0,0,1-53.76,22.16h-.08a78.65,78.65,0,0,1-15.84-1.63c-24.87-5.13-44.78-21.84-53.25-44.67-.18-.49-.37-1-.56-1.59l-.49-1.45c-1.07-3.25-2-6.7-2.87-10.51l-.06-.27c0-.12-.05-.24-.08-.35l-.27-1.25a.52.52,0,0,1,0-.11l-.13-.6c-.07-.31-.14-.63-.19-.9l-.14-.72c-.07-.32-.12-.65-.17-.9l-.12-.55c-.07-.33-.12-.66-.18-1,0-.07,0-.14,0-.22-.09-.41-.16-.81-.22-1.22l0-.09-.32-1.82c-.07-.42-.14-.84-.2-1.26l-.13-.76c-.07-.42-.14-.86-.2-1.28l0-.17-.09-.54a.5.5,0,0,0,0-.12c-.12-.84-.25-1.69-.36-2.5l0-.16c-.41-2.82-.8-5.62-1.17-8.42l-.05-.41-.15-1.1,0-.22c-.6-4.54-1.23-9.22-2-13.88-.25-1.6-.54-3.2-.82-4.79-4.51-25.28-13.34-43.14-27-54.62l-.15-.12-.29-.24c-.27-.21-.52-.43-.8-.64-12.74-10-30.91-13.47-45.22-8.75a16.84,16.84,0,0,0-10.26,22.62c10.33,24.29,21.26,52.61,19.94,81.23,0,.89-.09,1.78-.15,2.68-1,13.92-4.68,28.22-8.24,42.05-3.83,14.81-7.77,30.12-8.46,45a79.29,79.29,0,0,0,4.43,31.45c4.27,11.58,11.52,21.52,18.73,30.54,1.68,2.1,3.4,4.2,5.12,6.32l2.62,3.22c2.14,2.62,4.93,6.1,7.56,9.64a156.83,156.83,0,0,1,26.11,55.64A170.35,170.35,0,0,1,483.66,602c0,.65,0,1.29.07,1.94l0,1.43c0,.19,0,.38,0,.59l0,.64c0,.42,0,.84,0,1.32s0,.7,0,1.15,0,1.14,0,1.79c0,.38,0,.76,0,1.19s0,1.13,0,1.76l0,1.18c0,.55,0,1.1-.07,1.64v.15c0,.37,0,.75,0,1.16s0,1-.08,1.57c0,.05,0,.11,0,.17,0,.39,0,.76-.07,1.21s0,.69-.07,1l-.07,1c0,.23,0,.44-.05.65s0,.13,0,.19c-.05.56-.09,1.11-.16,1.75l0,.37c0,.17,0,.36,0,.53l0,.25c0,.36-.07.72-.11,1.06l-.09.87c0,.24-.05.47-.07.7l0,.24c-.08.74-.18,1.5-.27,2.24,0,.07,0,.15,0,.21l0,.18a.77.77,0,0,1,0,.15c-.12.94-.25,1.88-.39,2.81l-.18,1.13c0,.23-.07.47-.11.7l-.14.86c-.06.33-.11.67-.19,1.06l-.12.72-.2,1.13-.21,1.07s0,.11,0,.13c-.1.54-.21,1.08-.31,1.61-.05.22-.09.43-.14.64l-.09.42,0,.13c-.09.48-.2,1-.3,1.43l-.32,1.4c-.12.53-.24,1-.37,1.57l0,.11-.25,1.07c-.12.46-.23.91-.35,1.35l-1.13,4.14c-.09.36-.2.7-.31,1.06L476.9,658c0,.15-.08.28-.12.43a.4.4,0,0,0,0,.13l-.42,1.34-.18.54c-.08.24-.14.46-.22.69l0,.09c-.58,1.76-1.21,3.56-1.85,5.34l-.05.12-.16.42,0,.13-.05.12-.66,1.76-.38.92a1.06,1.06,0,0,1-.06.19c-.21.51-.4,1-.64,1.59-.13.32-.26.64-.4,1,0,0-.05.11-.07.17-.12.31-.25.61-.37.92C446.6,644.68,424.63,628.68,370.78,591ZM805.67,484.35c-20.72,54.32-41.59,94.7-69.76,135-29.12,41.68-72.22,64-125.53,88.92-57.63,26.92-112.77,30.49-166.23,31,21.68-19.33,32-35.07,36.89-45.73l.45-.87c.31-.58.61-1.17.9-1.76l.13-.27c.15-.28.29-.57.43-.86.27-.53.54-1.07.8-1.61a.36.36,0,0,0,0-.09l.51-1.08c.27-.56.54-1.13.79-1.69.12-.24.23-.48.33-.71l.21-.48c.2-.41.37-.83.56-1.23l.18-.42c.17-.4.36-.82.53-1.23.25-.58.5-1.17.74-1.76l.45-1.06c.26-.62.5-1.25.76-1.94l.4-1c.28-.71.54-1.42.81-2.14l0-.11.28-.75q1.08-2.94,2.06-6l.06-.2c.05-.12.09-.25.13-.38s0-.14.06-.2l.2-.6c.15-.51.32-1,.47-1.52l.23-.78.29-1c.14-.43.26-.87.37-1.25s.13-.49.2-.73l.63-2.25s0-.1,0-.15l.37-1.44c.14-.52.28-1,.42-1.62l.26-1.1c.16-.65.32-1.3.46-2l.33-1.45c.12-.52.22-1,.34-1.56.05-.22.1-.44.14-.66l.08-.42a1,1,0,0,0,0-.17c.13-.62.25-1.25.37-1.89l.23-1.18c.09-.48.17-1,.26-1.44l.1-.6c.08-.46.16-.91.24-1.38l.11-.73c.06-.33.11-.67.17-1l.16-1s0-.08,0-.12c.15-1,.29-2.06.43-3.08,0-.23.06-.47.08-.72.11-.81.22-1.63.3-2.44.05-.4.1-.79.13-1.18l.08-.71.12-1.27c0-.33.07-.68.1-1l0-.19c.06-.65.11-1.31.16-2,0-.31.05-.62.08-.92l0-.37a.45.45,0,0,1,0-.12l0-.59c0-.44.05-.87.07-1.24s.06-.88.08-1.32c0-.62.07-1.25.1-1.88,0-.44,0-.88.05-1.37l.06-1.81v-.16l0-1.23c0-.64,0-1.27,0-1.87s0-.93,0-1.31c0-.69,0-1.37,0-2,0-.44,0-.89,0-1.27s0-1,0-1.49v-.67a1,1,0,0,0,0-.17v-.34c0-.22,0-.44,0-.68l0-1c0-.69-.06-1.4-.09-2.12a187.76,187.76,0,0,0-5.32-36.3,174.51,174.51,0,0,0-29-61.78c-2.85-3.82-5.8-7.48-8.06-10.26L456,489.63c-1.7-2.08-3.38-4.12-5-6.17-7.27-9.1-12.76-17-16-25.69a62.2,62.2,0,0,1-3.39-24.65c.61-13.08,4.17-26.87,7.93-41.48s7.65-29.64,8.75-45.22c.08-1.05.15-2.09.18-3.07,1.47-32-10.07-62.31-21.09-88.26,8.83-2.67,20.49-.21,28.55,6.09.19.15.39.3.58.47l.25.2c10.4,8.76,17.28,23.25,21,44.3.26,1.46.51,3,.76,4.47.7,4.44,1.31,9,1.9,13.46l0,.28c0,.05,0,.1,0,.14,0,.29.07.57.11.86l.06.46c.39,2.85.77,5.72,1.2,8.59l0,.16c.12.88.26,1.76.39,2.63,0,.29.09.6.14.89.07.48.14.94.22,1.41l.14.8c0,.07,0,.13,0,.2.06.3.1.6.15.9,0,.08,0,.16,0,.24l.35,1.95c.08.5.17,1,.27,1.51s.16.88.25,1.33l.11.55.15.76.17.93c.09.4.18.81.26,1.21l.11.48.29,1.33c.07.37.14.72.24,1.08,1,4.28,2,8.17,3.25,11.9a1,1,0,0,0,0,.1l.51,1.52c.23.67.47,1.33.72,2C500.3,396.8,525,417.6,555.76,424a94.15,94.15,0,0,0,19.45,2,92.55,92.55,0,0,0,66.07-27.27,234.61,234.61,0,0,0,31.12-38.89c18.56-28.92,32.67-63.23,44.42-108,.64-2.42,1.26-4.84,1.87-7.24l0-.16a63,63,0,0,0-5.16-44.86c-2.62-5-4.78-8.92-6.45-11.62,19.47,5.8,38.31,21.95,45.82,41.16,8.85,22.6,8.23,51-1.75,79.92-10.11,29.34-21.47,60.33-36,88.18a8.69,8.69,0,1,0,15.42,8c15-28.85,26.65-60.57,37-90.56a167,167,0,0,0,6.46-24.47c10.48,1.06,21.58,16.35,24,33.94,2.73,19.41-.56,43.79-9.26,68.65s-18.29,51.2-29.32,74.86a8.67,8.67,0,0,0,4.2,11.55,8.53,8.53,0,0,0,3.67.82,8.71,8.71,0,0,0,7.88-5c11.36-24.35,21.13-51.14,30-76.46,1.38-4,2.78-8.33,4.11-13a16,16,0,0,1,5.48,3.45c5.61,5.18,9.08,14.33,9,23.84C823.85,433.82,815.11,459.61,805.67,484.35Z" style="fill:#ff8295"/><path d="M154.89,905.15q-18.75,0-29.32-10.45T115,864.76V815.55h20.51v48.7q0,12.46,5.16,18.06t14.35,5.6q9.3,0,14.47-5.6t5.16-18.06v-48.7h20v49.21q0,19.5-10.58,29.94T154.89,905.15Z" style="fill:#ff8295"/><path d="M207.24,928.05V835.94H226v13.84l-.38,20.13,1.26,20v38.13Zm39.89-23.4a28.72,28.72,0,0,1-14.85-3.78,25.1,25.1,0,0,1-10-11.51q-3.6-7.74-3.59-19.57t3.4-19.63A23.92,23.92,0,0,1,232,838.71a29.6,29.6,0,0,1,15.17-3.78,34.35,34.35,0,0,1,17.3,4.34,32,32,0,0,1,12.08,12.15A36.31,36.31,0,0,1,281,869.79q0,10.69-4.47,18.43a32.16,32.16,0,0,1-12.08,12.09A34.35,34.35,0,0,1,247.13,904.65Zm-3.27-16.11a16.87,16.87,0,0,0,8.74-2.27,16.69,16.69,0,0,0,6.17-6.48,22.77,22.77,0,0,0,0-20.07,16.26,16.26,0,0,0-6.17-6.35,17.23,17.23,0,0,0-8.74-2.21,17.6,17.6,0,0,0-8.81,2.21,16.13,16.13,0,0,0-6.23,6.35,22.77,22.77,0,0,0,0,20.07,16.55,16.55,0,0,0,6.23,6.48A17.23,17.23,0,0,0,243.86,888.54Z" style="fill:#ff8295"/><path d="M339,903.64H318.48V815.55H339Zm41.4-36.12h-43V850.28h43Zm-1.51-52h20.39v88.09H378.88Z" style="fill:#ff8295"/><path d="M446.08,904.65a43.2,43.2,0,0,1-20.26-4.53,33,33,0,0,1-18.25-30.33,35.29,35.29,0,0,1,4.59-18A32.38,32.38,0,0,1,425,839.4a38.28,38.28,0,0,1,18.56-4.47,37.4,37.4,0,0,1,17.93,4.28,32.09,32.09,0,0,1,12.65,12.08q4.65,7.8,4.66,18.75c0,.76-.05,1.62-.13,2.58s-.17,1.87-.25,2.71h-55V863.87H468.1l-7.68,3.4a17.79,17.79,0,0,0-2-9.18A15.71,15.71,0,0,0,452.5,852a17.27,17.27,0,0,0-8.81-2.2,17.55,17.55,0,0,0-8.87,2.2,15.38,15.38,0,0,0-6,6.17,19.41,19.41,0,0,0-2.14,9.37v3a18.56,18.56,0,0,0,2.52,9.82,16.46,16.46,0,0,0,6.92,6.35,23.37,23.37,0,0,0,10.57,2.21,25.07,25.07,0,0,0,9.37-1.64,22.92,22.92,0,0,0,7.49-4.91L474,893.7a30.42,30.42,0,0,1-11.71,8.11A43.25,43.25,0,0,1,446.08,904.65Z" style="fill:#ff8295"/><path d="M504.59,904.65a31,31,0,0,1-13.46-2.71,21.11,21.11,0,0,1-8.75-7.36,18.55,18.55,0,0,1-3.08-10.45,18.89,18.89,0,0,1,3-10.5q3-4.59,9.37-7.11T508.49,864h17.87v11.33H510.51q-6.93,0-9.51,2.26a7.25,7.25,0,0,0-2.57,5.66,7.06,7.06,0,0,0,2.95,6,13.08,13.08,0,0,0,8,2.2,17.8,17.8,0,0,0,9-2.26,12.39,12.39,0,0,0,5.6-6.92l3,9.18a17.82,17.82,0,0,1-7.8,9.76Q513.52,904.64,504.59,904.65Zm20.64-1V890.43l-1.26-2.9V863.87q0-6.29-3.84-9.81t-11.76-3.52a34.26,34.26,0,0,0-10.64,1.69,29.86,29.86,0,0,0-9,4.6l-6.92-13.72a39.84,39.84,0,0,1,13.33-6.1A61.23,61.23,0,0,1,511,834.93q15.48,0,24,7.3T543.6,865v38.63Z" style="fill:#ff8295"/><path d="M555.05,903.64V810.27h19.63v93.37Z" style="fill:#ff8295"/><path d="M621.24,903.64V815.55h35.87q14.08,0,24.72,5.6a41.16,41.16,0,0,1,16.55,15.54,47.27,47.27,0,0,1,0,45.81A41,41,0,0,1,681.83,898q-10.64,5.6-24.72,5.6Zm9.31-8H656.6q11.7,0,20.33-4.6a33.51,33.51,0,0,0,13.4-12.71,39,39,0,0,0,0-37.43,33.64,33.64,0,0,0-13.4-12.65q-8.62-4.59-20.33-4.59H630.55Z" style="fill:#ff8295"/><path d="M703.54,903.64l40.27-88.09H753l40.27,88.09h-9.81l-37-82.68h3.78l-37,82.68Zm15.86-23.53,2.76-7.55h51.22l2.77,7.55Z" style="fill:#ff8295"/><path d="M838.82,904.39a50.07,50.07,0,0,1-18.44-3.33A43.4,43.4,0,0,1,796,877.4a47.54,47.54,0,0,1,0-35.61,43.54,43.54,0,0,1,24.35-23.66,52.69,52.69,0,0,1,36.87,0,44,44,0,0,1,14.66,9.38,42.77,42.77,0,0,1,9.69,14.22,47.85,47.85,0,0,1,0,35.73,42.77,42.77,0,0,1-9.69,14.22,44,44,0,0,1-14.66,9.38A49.59,49.59,0,0,1,838.82,904.39Zm0-8.3a38.86,38.86,0,0,0,14.66-2.71,34.71,34.71,0,0,0,11.7-7.67,36,36,0,0,0,7.74-11.58,39.52,39.52,0,0,0,0-29.07,36,36,0,0,0-7.74-11.58,34.71,34.71,0,0,0-11.7-7.67,39.05,39.05,0,0,0-14.66-2.71,39.53,39.53,0,0,0-14.73,2.71,35.16,35.16,0,0,0-11.83,7.67,35.52,35.52,0,0,0-7.8,11.58,39.36,39.36,0,0,0,0,29,34.93,34.93,0,0,0,19.63,19.31A39.33,39.33,0,0,0,838.82,896.09Z" style="fill:#ff8295"/></g></svg>